<?xml version="1.0" standalone="no"?>
<!DOCTYPE svg PUBLIC "-//W3C//DTD SVG 20010904//EN"
 "http://www.w3.org/TR/2001/REC-SVG-20010904/DTD/svg10.dtd">
<svg version="1.0" xmlns="http://www.w3.org/2000/svg"
 width="500.000000pt" height="500.000000pt" viewBox="0 0 500.000000 500.000000"
 preserveAspectRatio="xMidYMid meet">

<g transform="translate(0.000000,500.000000) scale(0.100000,-0.100000)"
fill="#000000" stroke="none">
<path d="M1742 4082 c2 -5 59 -104 127 -220 l123 -212 514 0 513 0 -490 -857
c-270 -472 -499 -870 -508 -885 l-17 -28 -249 436 c-137 240 -254 438 -260
440 -6 3 -122 3 -258 2 l-247 -3 505 -885 c277 -487 508 -883 512 -881 7 4
1773 3089 1773 3097 0 2 -459 4 -1021 4 -561 0 -1019 -4 -1017 -8z"/>
<path d="M3156 2094 l-386 -676 116 -203 c63 -112 121 -210 127 -219 10 -13
97 134 520 873 279 489 507 891 507 895 0 3 -112 6 -249 6 l-248 0 -387 -676z"/>
</g>
</svg>
